<svg version="1.1" xmlns="http://www.w3.org/2000/svg" xmlns:xlink="http://www.w3.org/1999/xlink" role="img" width="397" height="47" viewbox="0 0 397 47"><title>AISHITERU</title><path d="M13.47 47.08L-1.72 47.08L19.09-1.16L38.46-1.16L59.34 47.08L43.78 47.08L32.34 19.22L29.17 11.08L28.23 11.08L25.14 19.22L13.47 47.08M46.16 38.15L10.59 38.15L10.59 25.98L46.16 25.98L46.16 38.15ZM74.31 47.08L60.78 47.08L60.78-1.16L74.31-1.16L74.31 47.08ZM102.03 47.80Q94.69 47.80 89.36 45.96Q84.03 44.13 81.15 40.28Q78.27 36.42 78.27 30.30L78.27 29.87L91.81 29.87L91.81 31.38Q91.81 32.97 92.49 33.87Q93.18 34.77 95.34 35.13Q97.50 35.49 102.03 35.49Q106.14 35.49 108.08 35.24Q110.02 34.98 110.56 34.37Q111.10 33.76 111.10 32.68Q111.10 31.38 110.13 30.74Q109.16 30.09 106.21 29.73L91.09 27.71Q86.62 27.06 83.60 25.30Q80.58 23.54 79.06 20.66Q77.55 17.78 77.55 13.89Q77.55 11.01 78.78 8.20Q80.00 5.39 82.74 3.12Q85.47 0.86 89.94-0.51Q94.40-1.88 100.95-1.88Q108.66-1.88 113.66 0.24Q118.66 2.37 121.15 6.29Q123.63 10.22 123.63 15.62L123.63 16.05L110.10 16.05L110.10 14.97Q110.10 13.24 109.34 12.23Q108.58 11.22 106.32 10.79Q104.05 10.36 99.51 10.36Q96.06 10.36 94.26 10.68Q92.46 11.01 91.77 11.66Q91.09 12.30 91.09 13.38Q91.09 14.10 91.41 14.64Q91.74 15.18 92.49 15.47Q93.25 15.76 94.54 15.98L109.66 18.21Q115.57 19.07 118.81 21.20Q122.05 23.32 123.34 26.20Q124.64 29.08 124.64 32.18Q124.64 36.28 122.37 39.84Q120.10 43.41 115.14 45.60Q110.17 47.80 102.03 47.80ZM177.42 47.08L163.88 47.08L163.88-1.16L177.42-1.16L177.42 47.08M141.42 47.08L127.88 47.08L127.88-1.16L141.42-1.16L141.42 47.08M170.86 28.94L131.41 28.94L131.41 16.77L170.86 16.77L170.86 28.94ZM195.27 47.08L181.74 47.08L181.74-1.16L195.27-1.16L195.27 47.08ZM229.11 47.08L215.58 47.08L215.58-1.16L229.11-1.16L229.11 47.08M246.10 11.01L198.51 11.01L198.51-1.16L246.10-1.16L246.10 11.01ZM262.88 47.08L249.34 47.08L249.34-1.16L262.88-1.16L262.88 47.08M292.18 47.08L253.02 47.08L253.02 34.91L292.18 34.91L292.18 47.08M291.10 28.86L253.02 28.86L253.02 16.77L291.10 16.77L291.10 28.86M292.18 11.01L253.02 11.01L253.02-1.16L292.18-1.16L292.18 11.01ZM309.54 47.08L296.00 47.08L296.00-1.16L324.15-1.16Q330.56-1.16 334.88 0.57Q339.20 2.30 341.40 5.57Q343.59 8.85 343.59 13.60Q343.59 17.42 342.26 20.19Q340.93 22.96 338.05 24.65Q335.17 26.34 330.56 26.92L330.56 27.64Q334.30 28.58 335.92 30.41Q337.54 32.25 338.91 34.98L344.89 47.08L329.26 47.08L323.50 35.27Q322.64 33.47 321.70 32.46Q320.77 31.46 319.26 31.06Q317.74 30.66 315.08 30.66L309.54 30.66L309.54 47.08M309.54 11.01L309.54 20.58L324.01 20.58Q326.96 20.58 328.18 19.72Q329.41 18.86 329.41 15.76Q329.41 12.88 328.18 11.94Q326.96 11.01 324.01 11.01L309.54 11.01ZM371.38 47.80Q362.96 47.80 357.52 45.24Q352.09 42.69 349.42 37.97Q346.76 33.26 346.76 26.85L346.76-1.16L360.30-1.16L360.30 25.77Q360.30 29.22 361.16 31.17Q362.02 33.11 364.44 33.90Q366.85 34.70 371.38 34.70Q375.99 34.70 378.37 33.90Q380.74 33.11 381.61 31.17Q382.47 29.22 382.47 25.77L382.47-1.16L396.01-1.16L396.01 26.85Q396.01 33.26 393.34 37.97Q390.68 42.69 385.24 45.24Q379.81 47.80 371.38 47.80Z"></path></svg>