<svg version="1.1" xmlns="http://www.w3.org/2000/svg" xmlns:xlink="http://www.w3.org/1999/xlink" role="img" width="439" height="47" viewbox="0 0 439 47"><title>POZNAŃSKI</title><path d="M27.87 34.91L5.70 34.91L5.70 22.74L26.36 22.74Q29.96 22.74 31.51 21.66Q33.06 20.58 33.06 16.84Q33.06 13.17 31.51 12.09Q29.96 11.01 26.36 11.01L5.70 11.01L5.70-1.16L27.87-1.16Q33.63-1.16 37.81 0.96Q41.98 3.09 44.25 7.08Q46.52 11.08 46.52 16.84Q46.52 22.53 44.25 26.60Q41.98 30.66 37.81 32.79Q33.63 34.91 27.87 34.91M14.70 47.08L1.16 47.08L1.16-1.16L14.70-1.16L14.70 47.08ZM75.39 47.80Q67.04 47.80 61.03 44.74Q55.02 41.68 51.85 36.10Q48.68 30.52 48.68 22.96Q48.68 15.40 51.85 9.82Q55.02 4.24 61.03 1.18Q67.04-1.88 75.39-1.88Q84.03-1.88 90.04 1.18Q96.06 4.24 99.22 9.82Q102.39 15.40 102.39 22.96Q102.39 30.52 99.22 36.10Q96.06 41.68 90.04 44.74Q84.03 47.80 75.39 47.80M75.39 34.84Q80.29 34.84 83.02 33.87Q85.76 32.90 86.88 30.30Q87.99 27.71 87.99 22.96Q87.99 18.14 86.88 15.58Q85.76 13.02 83.02 12.05Q80.29 11.08 75.39 11.08Q70.50 11.08 67.83 12.05Q65.17 13.02 64.12 15.58Q63.08 18.14 63.08 22.96Q63.08 27.71 64.12 30.30Q65.17 32.90 67.83 33.87Q70.50 34.84 75.39 34.84ZM152.22 47.08L105.63 47.08L105.63 34.91L131.34 11.94L131.34 11.01L106.06 11.01L106.06-1.16L151.78-1.16L151.78 11.01L124.93 33.98L124.93 34.91L152.22 34.91L152.22 47.08ZM169.71 47.08L156.18 47.08L156.18-1.16L170.58-1.16L183.97 16.91L191.02 28.00L191.96 28.00L191.31 17.49L191.31-1.16L204.85-1.16L204.85 47.08L190.45 47.08L176.19 28.50L170.07 19.00L169.14 19.00L169.71 28.22L169.71 47.08ZM221.48 47.08L206.29 47.08L227.10-1.16L246.46-1.16L267.34 47.08L251.79 47.08L240.34 19.22L237.18 11.08L236.24 11.08L233.14 19.22L221.48 47.08M254.17 38.15L218.60 38.15L218.60 25.98L254.17 25.98L254.17 38.15ZM282.32 47.08L268.78 47.08L268.78-1.16L283.18-1.16L296.58 16.91L303.63 28.00L304.57 28.00L303.92 17.49L303.92-1.16L317.46-1.16L317.46 47.08L303.06 47.08L288.80 28.50L282.68 19.00L281.74 19.00L282.32 28.22L282.32 47.08M300.32-5.48L285.78-5.48L295.35-15.13L314.86-15.13L300.32-5.48ZM345.18 47.80Q337.83 47.80 332.50 45.96Q327.18 44.13 324.30 40.28Q321.42 36.42 321.42 30.30L321.42 29.87L334.95 29.87L334.95 31.38Q334.95 32.97 335.64 33.87Q336.32 34.77 338.48 35.13Q340.64 35.49 345.18 35.49Q349.28 35.49 351.22 35.24Q353.17 34.98 353.71 34.37Q354.25 33.76 354.25 32.68Q354.25 31.38 353.28 30.74Q352.30 30.09 349.35 29.73L334.23 27.71Q329.77 27.06 326.74 25.30Q323.72 23.54 322.21 20.66Q320.70 17.78 320.70 13.89Q320.70 11.01 321.92 8.20Q323.14 5.39 325.88 3.12Q328.62 0.86 333.08-0.51Q337.54-1.88 344.10-1.88Q351.80-1.88 356.80 0.24Q361.81 2.37 364.29 6.29Q366.78 10.22 366.78 15.62L366.78 16.05L353.24 16.05L353.24 14.97Q353.24 13.24 352.48 12.23Q351.73 11.22 349.46 10.79Q347.19 10.36 342.66 10.36Q339.20 10.36 337.40 10.68Q335.60 11.01 334.92 11.66Q334.23 12.30 334.23 13.38Q334.23 14.10 334.56 14.64Q334.88 15.18 335.64 15.47Q336.39 15.76 337.69 15.98L352.81 18.21Q358.71 19.07 361.95 21.20Q365.19 23.32 366.49 26.20Q367.78 29.08 367.78 32.18Q367.78 36.28 365.52 39.84Q363.25 43.41 358.28 45.60Q353.31 47.80 345.18 47.80ZM421.86 47.08L405.66 47.08L394.42 29.94L380.60 29.94L380.60 16.77L394.28 16.77L406.02-1.16L422.22-1.16L405.51 22.53L421.86 47.08M384.56 47.08L371.02 47.08L371.02-1.16L384.56-1.16L384.56 47.08ZM437.19 47.08L423.66 47.08L423.66-1.16L437.19-1.16L437.19 47.08Z"></path></svg>