<svg version="1.1" xmlns="http://www.w3.org/2000/svg" xmlns:xlink="http://www.w3.org/1999/xlink" role="img" width="394" height="47" viewbox="0 0 394 47"><title>FESTIWAL</title><path d="M14.70 47.08L1.16 47.08L1.16-1.16L14.70-1.16L14.70 47.08M43.21 30.30L4.83 30.30L4.83 18.21L43.21 18.21L43.21 30.30M44.29 11.01L4.83 11.01L4.83-1.16L44.29-1.16L44.29 11.01ZM61.35 47.08L47.82 47.08L47.82-1.16L61.35-1.16L61.35 47.08M90.66 47.08L51.49 47.08L51.49 34.91L90.66 34.91L90.66 47.08M89.58 28.86L51.49 28.86L51.49 16.77L89.58 16.77L89.58 28.86M90.66 11.01L51.49 11.01L51.49-1.16L90.66-1.16L90.66 11.01ZM117.87 47.80Q110.53 47.80 105.20 45.96Q99.87 44.13 96.99 40.28Q94.11 36.42 94.11 30.30L94.11 29.87L107.65 29.87L107.65 31.38Q107.65 32.97 108.33 33.87Q109.02 34.77 111.18 35.13Q113.34 35.49 117.87 35.49Q121.98 35.49 123.92 35.24Q125.86 34.98 126.40 34.37Q126.94 33.76 126.94 32.68Q126.94 31.38 125.97 30.74Q125.00 30.09 122.05 29.73L106.93 27.71Q102.46 27.06 99.44 25.30Q96.42 23.54 94.90 20.66Q93.39 17.78 93.39 13.89Q93.39 11.01 94.62 8.20Q95.84 5.39 98.58 3.12Q101.31 0.86 105.78-0.51Q110.24-1.88 116.79-1.88Q124.50-1.88 129.50 0.24Q134.50 2.37 136.99 6.29Q139.47 10.22 139.47 15.62L139.47 16.05L125.94 16.05L125.94 14.97Q125.94 13.24 125.18 12.23Q124.42 11.22 122.16 10.79Q119.89 10.36 115.35 10.36Q111.90 10.36 110.10 10.68Q108.30 11.01 107.61 11.66Q106.93 12.30 106.93 13.38Q106.93 14.10 107.25 14.64Q107.58 15.18 108.33 15.47Q109.09 15.76 110.38 15.98L125.50 18.21Q131.41 19.07 134.65 21.20Q137.89 23.32 139.18 26.20Q140.48 29.08 140.48 32.18Q140.48 36.28 138.21 39.84Q135.94 43.41 130.98 45.60Q126.01 47.80 117.87 47.80ZM173.24 47.08L159.70 47.08L159.70-1.16L173.24-1.16L173.24 47.08M190.23 11.01L142.64 11.01L142.64-1.16L190.23-1.16L190.23 11.01ZM207.01 47.08L193.47 47.08L193.47-1.16L207.01-1.16L207.01 47.08ZM239.98 47.08L219.90 47.08L209.82-1.16L224.94-1.16L228.97 23.39L230.26 34.26L231.20 34.26L233.14 23.39L239.62-1.16L260-1.16L265.90 23.39L267.63 34.26L268.57 34.26L270.01 23.39L274.54-1.16L289.38-1.16L278.36 47.08L258.27 47.08L253.23 26.42L250.06 11.30L249.13 11.30L245.74 26.42L239.98 47.08ZM304.50 47.08L289.30 47.08L310.11-1.16L329.48-1.16L350.36 47.08L334.81 47.08L323.36 19.22L320.19 11.08L319.26 11.08L316.16 19.22L304.50 47.08M337.18 38.15L301.62 38.15L301.62 25.98L337.18 25.98L337.18 38.15ZM365.34 47.08L351.80 47.08L351.80-1.16L365.34-1.16L365.34 47.08M393.20 47.08L355.54 47.08L355.54 34.91L393.20 34.91L393.20 47.08Z"></path></svg>