<svg version="1.1" xmlns="http://www.w3.org/2000/svg" xmlns:xlink="http://www.w3.org/1999/xlink" role="img" width="539" height="47" viewbox="0 0 539 47"><title>ANIME I MANGI</title><path d="M13.47 47.08L-1.72 47.08L19.09-1.16L38.46-1.16L59.34 47.08L43.78 47.08L32.34 19.22L29.17 11.08L28.23 11.08L25.14 19.22L13.47 47.08M46.16 38.15L10.59 38.15L10.59 25.98L46.16 25.98L46.16 38.15ZM74.31 47.08L60.78 47.08L60.78-1.16L75.18-1.16L88.57 16.91L95.62 28.00L96.56 28.00L95.91 17.49L95.91-1.16L109.45-1.16L109.45 47.08L95.05 47.08L80.79 28.50L74.67 19.00L73.74 19.00L74.31 28.22L74.31 47.08ZM127.30 47.08L113.77 47.08L113.77-1.16L127.30-1.16L127.30 47.08ZM145.16 47.08L131.62 47.08L131.62-1.16L149.98-1.16L158.84 18.86L163.59 31.31L164.53 31.31L169.06 18.86L177.49-1.16L195.85-1.16L195.85 47.08L182.31 47.08L182.31 27.14L182.82 19.07L181.88 19.07L179.14 27.14L171.94 44.20L155.53 44.20L148.33 27.14L145.59 19.07L144.66 19.07L145.16 27.14L145.16 47.08ZM213.70 47.08L200.17 47.08L200.17-1.16L213.70-1.16L213.70 47.08M243.01 47.08L203.84 47.08L203.84 34.91L243.01 34.91L243.01 47.08M241.93 28.86L203.84 28.86L203.84 16.77L241.93 16.77L241.93 28.86M243.01 11.01L203.84 11.01L203.84-1.16L243.01-1.16L243.01 11.01ZM270.44 47.08L256.90 47.08L256.90-1.16L270.44-1.16L270.44 47.08ZM298.38 47.08L284.84 47.08L284.84-1.16L303.20-1.16L312.06 18.86L316.81 31.31L317.74 31.31L322.28 18.86L330.70-1.16L349.06-1.16L349.06 47.08L335.53 47.08L335.53 27.14L336.03 19.07L335.10 19.07L332.36 27.14L325.16 44.20L308.74 44.20L301.54 27.14L298.81 19.07L297.87 19.07L298.38 27.14L298.38 47.08ZM365.70 47.08L350.50 47.08L371.31-1.16L390.68-1.16L411.56 47.08L396.01 47.08L384.56 19.22L381.39 11.08L380.46 11.08L377.36 19.22L365.70 47.08M398.38 38.15L362.82 38.15L362.82 25.98L398.38 25.98L398.38 38.15ZM426.54 47.08L413.00 47.08L413.00-1.16L427.40-1.16L440.79 16.91L447.85 28.00L448.78 28.00L448.14 17.49L448.14-1.16L461.67-1.16L461.67 47.08L447.27 47.08L433.02 28.50L426.90 19.00L425.96 19.00L426.54 28.22L426.54 47.08ZM489.32 47.80Q481.76 47.80 476.36 44.74Q470.96 41.68 468.12 36.10Q465.27 30.52 465.27 22.96Q465.27 15.40 468.58 9.82Q471.90 4.24 478.16 1.18Q484.42-1.88 493.21-1.88Q501.42-1.88 507.25 0.42Q513.08 2.73 516.18 7.01Q519.27 11.30 519.27 17.27L519.27 17.78L504.15 17.78L504.15 17.27Q504.15 13.89 501.70 12.48Q499.26 11.08 492.85 11.08Q487.66 11.08 484.82 12.05Q481.98 13.02 480.82 15.58Q479.67 18.14 479.67 22.96Q479.67 27.71 480.75 30.30Q481.83 32.90 484.53 33.87Q487.23 34.84 492.13 34.84Q497.96 34.84 500.91 34.44Q503.86 34.05 504.84 32.72Q505.81 31.38 505.81 28.58L505.81 25.91L519.34 25.62L519.34 26.63L507.61 36.78L506.02 36.78Q505.38 39.59 503.61 42.11Q501.85 44.63 498.43 46.22Q495.01 47.80 489.32 47.80M519.34 47.08L506.74 47.08L506.74 33.33L505.81 31.82L505.81 21.38L519.34 21.38L519.34 47.08M519.34 30.66L490.83 30.66L490.83 20.73L519.34 20.73L519.34 30.66ZM536.91 47.08L523.38 47.08L523.38-1.16L536.91-1.16L536.91 47.08Z"></path></svg>