<svg version="1.1" xmlns="http://www.w3.org/2000/svg" xmlns:xlink="http://www.w3.org/1999/xlink" role="img" width="380" height="47" viewbox="0 0 380 47"><title>WEEKEND</title><path d="M29.82 47.08L9.73 47.08L-0.35-1.16L14.77-1.16L18.80 23.39L20.10 34.26L21.03 34.26L22.98 23.39L29.46-1.16L49.83-1.16L55.74 23.39L57.46 34.26L58.40 34.26L59.84 23.39L64.38-1.16L79.21-1.16L68.19 47.08L48.10 47.08L43.06 26.42L39.90 11.30L38.96 11.30L35.58 26.42L29.82 47.08ZM95.55 47.08L82.02 47.08L82.02-1.16L95.55-1.16L95.55 47.08M124.86 47.08L85.69 47.08L85.69 34.91L124.86 34.91L124.86 47.08M123.78 28.86L85.69 28.86L85.69 16.77L123.78 16.77L123.78 28.86M124.86 11.01L85.69 11.01L85.69-1.16L124.86-1.16L124.86 11.01ZM142.21 47.08L128.67 47.08L128.67-1.16L142.21-1.16L142.21 47.08M171.51 47.08L132.34 47.08L132.34 34.91L171.51 34.91L171.51 47.08M170.43 28.86L132.34 28.86L132.34 16.77L170.43 16.77L170.43 28.86M171.51 11.01L132.34 11.01L132.34-1.16L171.51-1.16L171.51 11.01ZM226.16 47.08L209.96 47.08L198.73 29.94L184.90 29.94L184.90 16.77L198.58 16.77L210.32-1.16L226.52-1.16L209.82 22.53L226.16 47.08M188.86 47.08L175.33 47.08L175.33-1.16L188.86-1.16L188.86 47.08ZM241.50 47.08L227.96 47.08L227.96-1.16L241.50-1.16L241.50 47.08M270.80 47.08L231.63 47.08L231.63 34.91L270.80 34.91L270.80 47.08M269.72 28.86L231.63 28.86L231.63 16.77L269.72 16.77L269.72 28.86M270.80 11.01L231.63 11.01L231.63-1.16L270.80-1.16L270.80 11.01ZM288.15 47.08L274.62 47.08L274.62-1.16L289.02-1.16L302.41 16.91L309.46 28.00L310.40 28.00L309.75 17.49L309.75-1.16L323.29-1.16L323.29 47.08L308.89 47.08L294.63 28.50L288.51 19.00L287.58 19.00L288.15 28.22L288.15 47.08ZM352.81 47.08L331.78 47.08L331.78 34.91L352.81 34.91Q357.13 34.91 359.65 34.19Q362.17 33.47 363.25 30.92Q364.33 28.36 364.33 22.96Q364.33 17.49 363.25 14.97Q362.17 12.45 359.65 11.73Q357.13 11.01 352.81 11.01L331.78 11.01L331.78-1.16L352.81-1.16Q360.80-1.16 366.63 1.68Q372.46 4.53 375.63 9.93Q378.80 15.33 378.80 22.96Q378.80 30.59 375.63 35.99Q372.46 41.39 366.63 44.24Q360.80 47.08 352.81 47.08M341.94 47.08L328.40 47.08L328.40-1.16L341.94-1.16L341.94 47.08Z"></path></svg>