<svg version="1.1" xmlns="http://www.w3.org/2000/svg" xmlns:xlink="http://www.w3.org/1999/xlink" role="img" width="535" height="47" viewbox="0 0 535 47"><title>Z MAJONGIEM</title><path d="M47.38 47.08L0.80 47.08L0.80 34.91L26.50 11.94L26.50 11.01L1.23 11.01L1.23-1.16L46.95-1.16L46.95 11.01L20.10 33.98L20.10 34.91L47.38 34.91L47.38 47.08ZM74.96 47.08L61.42 47.08L61.42-1.16L79.78-1.16L88.64 18.86L93.39 31.31L94.33 31.31L98.86 18.86L107.29-1.16L125.65-1.16L125.65 47.08L112.11 47.08L112.11 27.14L112.62 19.07L111.68 19.07L108.94 27.14L101.74 44.20L85.33 44.20L78.13 27.14L75.39 19.07L74.46 19.07L74.96 27.14L74.96 47.08ZM142.28 47.08L127.09 47.08L147.90-1.16L167.26-1.16L188.14 47.08L172.59 47.08L161.14 19.22L157.98 11.08L157.04 11.08L153.94 19.22L142.28 47.08M174.97 38.15L139.40 38.15L139.40 25.98L174.97 25.98L174.97 38.15ZM210.68 47.80Q202.47 47.80 197.50 45.35Q192.54 42.90 190.34 38.15Q188.14 33.40 188.14 26.42L188.14 24.54L202.54 24.54L202.54 26.27Q202.54 29.51 202.98 31.35Q203.41 33.18 205.10 33.94Q206.79 34.70 210.68 34.70Q214.57 34.70 216.30 34.01Q218.02 33.33 218.49 31.64Q218.96 29.94 218.96 26.99L218.96-1.16L233.36-1.16L233.36 27.14Q233.36 33.83 231.13 38.44Q228.90 43.05 223.93 45.42Q218.96 47.80 210.68 47.80ZM263.38 47.80Q255.03 47.80 249.02 44.74Q243.01 41.68 239.84 36.10Q236.67 30.52 236.67 22.96Q236.67 15.40 239.84 9.82Q243.01 4.24 249.02 1.18Q255.03-1.88 263.38-1.88Q272.02-1.88 278.04 1.18Q284.05 4.24 287.22 9.82Q290.38 15.40 290.38 22.96Q290.38 30.52 287.22 36.10Q284.05 41.68 278.04 44.74Q272.02 47.80 263.38 47.80M263.38 34.84Q268.28 34.84 271.02 33.87Q273.75 32.90 274.87 30.30Q275.98 27.71 275.98 22.96Q275.98 18.14 274.87 15.58Q273.75 13.02 271.02 12.05Q268.28 11.08 263.38 11.08Q258.49 11.08 255.82 12.05Q253.16 13.02 252.12 15.58Q251.07 18.14 251.07 22.96Q251.07 27.71 252.12 30.30Q253.16 32.90 255.82 33.87Q258.49 34.84 263.38 34.84ZM307.52 47.08L293.98 47.08L293.98-1.16L308.38-1.16L321.78 16.91L328.83 28.00L329.77 28.00L329.12 17.49L329.12-1.16L342.66-1.16L342.66 47.08L328.26 47.08L314 28.50L307.88 19.00L306.94 19.00L307.52 28.22L307.52 47.08ZM370.30 47.80Q362.74 47.80 357.34 44.74Q351.94 41.68 349.10 36.10Q346.26 30.52 346.26 22.96Q346.26 15.40 349.57 9.82Q352.88 4.24 359.14 1.18Q365.41-1.88 374.19-1.88Q382.40-1.88 388.23 0.42Q394.06 2.73 397.16 7.01Q400.26 11.30 400.26 17.27L400.26 17.78L385.14 17.78L385.14 17.27Q385.14 13.89 382.69 12.48Q380.24 11.08 373.83 11.08Q368.65 11.08 365.80 12.05Q362.96 13.02 361.81 15.58Q360.66 18.14 360.66 22.96Q360.66 27.71 361.74 30.30Q362.82 32.90 365.52 33.87Q368.22 34.84 373.11 34.84Q378.94 34.84 381.90 34.44Q384.85 34.05 385.82 32.72Q386.79 31.38 386.79 28.58L386.79 25.91L400.33 25.62L400.33 26.63L388.59 36.78L387.01 36.78Q386.36 39.59 384.60 42.11Q382.83 44.63 379.41 46.22Q375.99 47.80 370.30 47.80M400.33 47.08L387.73 47.08L387.73 33.33L386.79 31.82L386.79 21.38L400.33 21.38L400.33 47.08M400.33 30.66L371.82 30.66L371.82 20.73L400.33 20.73L400.33 30.66ZM417.90 47.08L404.36 47.08L404.36-1.16L417.90-1.16L417.90 47.08ZM435.75 47.08L422.22 47.08L422.22-1.16L435.75-1.16L435.75 47.08M465.06 47.08L425.89 47.08L425.89 34.91L465.06 34.91L465.06 47.08M463.98 28.86L425.89 28.86L425.89 16.77L463.98 16.77L463.98 28.86M465.06 11.01L425.89 11.01L425.89-1.16L465.06-1.16L465.06 11.01ZM482.41 47.08L468.87 47.08L468.87-1.16L487.23-1.16L496.09 18.86L500.84 31.31L501.78 31.31L506.31 18.86L514.74-1.16L533.10-1.16L533.10 47.08L519.56 47.08L519.56 27.14L520.06 19.07L519.13 19.07L516.39 27.14L509.19 44.20L492.78 44.20L485.58 27.14L482.84 19.07L481.90 19.07L482.41 27.14L482.41 47.08Z"></path></svg>