<svg version="1.1" xmlns="http://www.w3.org/2000/svg" xmlns:xlink="http://www.w3.org/1999/xlink" role="img" width="374" height="47" viewbox="0 0 374 47"><title>PGARENA</title><path d="M27.87 34.91L5.70 34.91L5.70 22.74L26.36 22.74Q29.96 22.74 31.51 21.66Q33.06 20.58 33.06 16.84Q33.06 13.17 31.51 12.09Q29.96 11.01 26.36 11.01L5.70 11.01L5.70-1.16L27.87-1.16Q33.63-1.16 37.81 0.96Q41.98 3.09 44.25 7.08Q46.52 11.08 46.52 16.84Q46.52 22.53 44.25 26.60Q41.98 30.66 37.81 32.79Q33.63 34.91 27.87 34.91M14.70 47.08L1.16 47.08L1.16-1.16L14.70-1.16L14.70 47.08ZM72.73 47.80Q65.17 47.80 59.77 44.74Q54.37 41.68 51.52 36.10Q48.68 30.52 48.68 22.96Q48.68 15.40 51.99 9.82Q55.30 4.24 61.57 1.18Q67.83-1.88 76.62-1.88Q84.82-1.88 90.66 0.42Q96.49 2.73 99.58 7.01Q102.68 11.30 102.68 17.27L102.68 17.78L87.56 17.78L87.56 17.27Q87.56 13.89 85.11 12.48Q82.66 11.08 76.26 11.08Q71.07 11.08 68.23 12.05Q65.38 13.02 64.23 15.58Q63.08 18.14 63.08 22.96Q63.08 27.71 64.16 30.30Q65.24 32.90 67.94 33.87Q70.64 34.84 75.54 34.84Q81.37 34.84 84.32 34.44Q87.27 34.05 88.24 32.72Q89.22 31.38 89.22 28.58L89.22 25.91L102.75 25.62L102.75 26.63L91.02 36.78L89.43 36.78Q88.78 39.59 87.02 42.11Q85.26 44.63 81.84 46.22Q78.42 47.80 72.73 47.80M102.75 47.08L90.15 47.08L90.15 33.33L89.22 31.82L89.22 21.38L102.75 21.38L102.75 47.08M102.75 30.66L74.24 30.66L74.24 20.73L102.75 20.73L102.75 30.66ZM119.10 47.08L103.90 47.08L124.71-1.16L144.08-1.16L164.96 47.08L149.41 47.08L137.96 19.22L134.79 11.08L133.86 11.08L130.76 19.22L119.10 47.08M151.78 38.15L116.22 38.15L116.22 25.98L151.78 25.98L151.78 38.15ZM179.94 47.08L166.40 47.08L166.40-1.16L194.55-1.16Q200.96-1.16 205.28 0.57Q209.60 2.30 211.80 5.57Q213.99 8.85 213.99 13.60Q213.99 17.42 212.66 20.19Q211.33 22.96 208.45 24.65Q205.57 26.34 200.96 26.92L200.96 27.64Q204.70 28.58 206.32 30.41Q207.94 32.25 209.31 34.98L215.29 47.08L199.66 47.08L193.90 35.27Q193.04 33.47 192.10 32.46Q191.17 31.46 189.66 31.06Q188.14 30.66 185.48 30.66L179.94 30.66L179.94 47.08M179.94 11.01L179.94 20.58L194.41 20.58Q197.36 20.58 198.58 19.72Q199.81 18.86 199.81 15.76Q199.81 12.88 198.58 11.94Q197.36 11.01 194.41 11.01L179.94 11.01ZM230.98 47.08L217.45 47.08L217.45-1.16L230.98-1.16L230.98 47.08M260.29 47.08L221.12 47.08L221.12 34.91L260.29 34.91L260.29 47.08M259.21 28.86L221.12 28.86L221.12 16.77L259.21 16.77L259.21 28.86M260.29 11.01L221.12 11.01L221.12-1.16L260.29-1.16L260.29 11.01ZM277.64 47.08L264.10 47.08L264.10-1.16L278.50-1.16L291.90 16.91L298.95 28.00L299.89 28.00L299.24 17.49L299.24-1.16L312.78-1.16L312.78 47.08L298.38 47.08L284.12 28.50L278.00 19.00L277.06 19.00L277.64 28.22L277.64 47.08ZM329.41 47.08L314.22 47.08L335.02-1.16L354.39-1.16L375.27 47.08L359.72 47.08L348.27 19.22L345.10 11.08L344.17 11.08L341.07 19.22L329.41 47.08M362.10 38.15L326.53 38.15L326.53 25.98L362.10 25.98L362.10 38.15Z"></path></svg>