<svg version="1.1" xmlns="http://www.w3.org/2000/svg" xmlns:xlink="http://www.w3.org/1999/xlink" role="img" width="596" height="47" viewbox="0 0 596 47"><title>WARSZAWSKIE</title><path d="M29.82 47.08L9.73 47.08L-0.35-1.16L14.77-1.16L18.80 23.39L20.10 34.26L21.03 34.26L22.98 23.39L29.46-1.16L49.83-1.16L55.74 23.39L57.46 34.26L58.40 34.26L59.84 23.39L64.38-1.16L79.21-1.16L68.19 47.08L48.10 47.08L43.06 26.42L39.90 11.30L38.96 11.30L35.58 26.42L29.82 47.08ZM94.33 47.08L79.14 47.08L99.94-1.16L119.31-1.16L140.19 47.08L124.64 47.08L113.19 19.22L110.02 11.08L109.09 11.08L105.99 19.22L94.33 47.08M127.02 38.15L91.45 38.15L91.45 25.98L127.02 25.98L127.02 38.15ZM155.17 47.08L141.63 47.08L141.63-1.16L169.78-1.16Q176.19-1.16 180.51 0.57Q184.83 2.30 187.03 5.57Q189.22 8.85 189.22 13.60Q189.22 17.42 187.89 20.19Q186.56 22.96 183.68 24.65Q180.80 26.34 176.19 26.92L176.19 27.64Q179.94 28.58 181.56 30.41Q183.18 32.25 184.54 34.98L190.52 47.08L174.90 47.08L169.14 35.27Q168.27 33.47 167.34 32.46Q166.40 31.46 164.89 31.06Q163.38 30.66 160.71 30.66L155.17 30.66L155.17 47.08M155.17 11.01L155.17 20.58L169.64 20.58Q172.59 20.58 173.82 19.72Q175.04 18.86 175.04 15.76Q175.04 12.88 173.82 11.94Q172.59 11.01 169.64 11.01L155.17 11.01ZM216.08 47.80Q208.74 47.80 203.41 45.96Q198.08 44.13 195.20 40.28Q192.32 36.42 192.32 30.30L192.32 29.87L205.86 29.87L205.86 31.38Q205.86 32.97 206.54 33.87Q207.22 34.77 209.38 35.13Q211.54 35.49 216.08 35.49Q220.18 35.49 222.13 35.24Q224.07 34.98 224.61 34.37Q225.15 33.76 225.15 32.68Q225.15 31.38 224.18 30.74Q223.21 30.09 220.26 29.73L205.14 27.71Q200.67 27.06 197.65 25.30Q194.62 23.54 193.11 20.66Q191.60 17.78 191.60 13.89Q191.60 11.01 192.82 8.20Q194.05 5.39 196.78 3.12Q199.52 0.86 203.98-0.51Q208.45-1.88 215-1.88Q222.70-1.88 227.71 0.24Q232.71 2.37 235.20 6.29Q237.68 10.22 237.68 15.62L237.68 16.05L224.14 16.05L224.14 14.97Q224.14 13.24 223.39 12.23Q222.63 11.22 220.36 10.79Q218.10 10.36 213.56 10.36Q210.10 10.36 208.30 10.68Q206.50 11.01 205.82 11.66Q205.14 12.30 205.14 13.38Q205.14 14.10 205.46 14.64Q205.78 15.18 206.54 15.47Q207.30 15.76 208.59 15.98L223.71 18.21Q229.62 19.07 232.86 21.20Q236.10 23.32 237.39 26.20Q238.69 29.08 238.69 32.18Q238.69 36.28 236.42 39.84Q234.15 43.41 229.18 45.60Q224.22 47.80 216.08 47.80ZM288.15 47.08L241.57 47.08L241.57 34.91L267.27 11.94L267.27 11.01L242.00 11.01L242.00-1.16L287.72-1.16L287.72 11.01L260.86 33.98L260.86 34.91L288.15 34.91L288.15 47.08ZM304.42 47.08L289.23 47.08L310.04-1.16L329.41-1.16L350.29 47.08L334.74 47.08L323.29 19.22L320.12 11.08L319.18 11.08L316.09 19.22L304.42 47.08M337.11 38.15L301.54 38.15L301.54 25.98L337.11 25.98L337.11 38.15ZM380.38 47.08L360.30 47.08L350.22-1.16L365.34-1.16L369.37 23.39L370.66 34.26L371.60 34.26L373.54 23.39L380.02-1.16L400.40-1.16L406.30 23.39L408.03 34.26L408.97 34.26L410.41 23.39L414.94-1.16L429.78-1.16L418.76 47.08L398.67 47.08L393.63 26.42L390.46 11.30L389.53 11.30L386.14 26.42L380.38 47.08ZM455.98 47.80Q448.64 47.80 443.31 45.96Q437.98 44.13 435.10 40.28Q432.22 36.42 432.22 30.30L432.22 29.87L445.76 29.87L445.76 31.38Q445.76 32.97 446.44 33.87Q447.13 34.77 449.29 35.13Q451.45 35.49 455.98 35.49Q460.09 35.49 462.03 35.24Q463.98 34.98 464.52 34.37Q465.06 33.76 465.06 32.68Q465.06 31.38 464.08 30.74Q463.11 30.09 460.16 29.73L445.04 27.71Q440.58 27.06 437.55 25.30Q434.53 23.54 433.02 20.66Q431.50 17.78 431.50 13.89Q431.50 11.01 432.73 8.20Q433.95 5.39 436.69 3.12Q439.42 0.86 443.89-0.51Q448.35-1.88 454.90-1.88Q462.61-1.88 467.61 0.24Q472.62 2.37 475.10 6.29Q477.58 10.22 477.58 15.62L477.58 16.05L464.05 16.05L464.05 14.97Q464.05 13.24 463.29 12.23Q462.54 11.22 460.27 10.79Q458.00 10.36 453.46 10.36Q450.01 10.36 448.21 10.68Q446.41 11.01 445.72 11.66Q445.04 12.30 445.04 13.38Q445.04 14.10 445.36 14.64Q445.69 15.18 446.44 15.47Q447.20 15.76 448.50 15.98L463.62 18.21Q469.52 19.07 472.76 21.20Q476.00 23.32 477.30 26.20Q478.59 29.08 478.59 32.18Q478.59 36.28 476.32 39.84Q474.06 43.41 469.09 45.60Q464.12 47.80 455.98 47.80ZM532.66 47.08L516.46 47.08L505.23 29.94L491.41 29.94L491.41 16.77L505.09 16.77L516.82-1.16L533.02-1.16L516.32 22.53L532.66 47.08M495.37 47.08L481.83 47.08L481.83-1.16L495.37-1.16L495.37 47.08ZM548.00 47.08L534.46 47.08L534.46-1.16L548.00-1.16L548.00 47.08ZM565.86 47.08L552.32 47.08L552.32-1.16L565.86-1.16L565.86 47.08M595.16 47.08L555.99 47.08L555.99 34.91L595.16 34.91L595.16 47.08M594.08 28.86L555.99 28.86L555.99 16.77L594.08 16.77L594.08 28.86M595.16 11.01L555.99 11.01L555.99-1.16L595.16-1.16L595.16 11.01Z"></path></svg>