<svg version="1.1" xmlns="http://www.w3.org/2000/svg" xmlns:xlink="http://www.w3.org/1999/xlink" role="img" width="315" height="47" viewbox="0 0 315 47"><title>PYRKON</title><path d="M27.87 34.91L5.70 34.91L5.70 22.74L26.36 22.74Q29.96 22.74 31.51 21.66Q33.06 20.58 33.06 16.84Q33.06 13.17 31.51 12.09Q29.96 11.01 26.36 11.01L5.70 11.01L5.70-1.16L27.87-1.16Q33.63-1.16 37.81 0.96Q41.98 3.09 44.25 7.08Q46.52 11.08 46.52 16.84Q46.52 22.53 44.25 26.60Q41.98 30.66 37.81 32.79Q33.63 34.91 27.87 34.91M14.70 47.08L1.16 47.08L1.16-1.16L14.70-1.16L14.70 47.08ZM81.30 31.89L67.90 31.89L46.16-1.16L62.94-1.16L70.21 10.29L74.31 17.06L75.25 17.06L79.35 10.29L86.62-1.16L103.47-1.16L81.30 31.89M81.37 47.08L67.83 47.08L67.83 24.18L81.37 24.18L81.37 47.08ZM118.09 47.08L104.55 47.08L104.55-1.16L132.70-1.16Q139.11-1.16 143.43 0.57Q147.75 2.30 149.95 5.57Q152.14 8.85 152.14 13.60Q152.14 17.42 150.81 20.19Q149.48 22.96 146.60 24.65Q143.72 26.34 139.11 26.92L139.11 27.64Q142.86 28.58 144.48 30.41Q146.10 32.25 147.46 34.98L153.44 47.08L137.82 47.08L132.06 35.27Q131.19 33.47 130.26 32.46Q129.32 31.46 127.81 31.06Q126.30 30.66 123.63 30.66L118.09 30.66L118.09 47.08M118.09 11.01L118.09 20.58L132.56 20.58Q135.51 20.58 136.74 19.72Q137.96 18.86 137.96 15.76Q137.96 12.88 136.74 11.94Q135.51 11.01 132.56 11.01L118.09 11.01ZM206.43 47.08L190.23 47.08L179.00 29.94L165.18 29.94L165.18 16.77L178.86 16.77L190.59-1.16L206.79-1.16L190.09 22.53L206.43 47.08M169.14 47.08L155.60 47.08L155.60-1.16L169.14-1.16L169.14 47.08ZM234.22 47.80Q225.87 47.80 219.86 44.74Q213.85 41.68 210.68 36.10Q207.51 30.52 207.51 22.96Q207.51 15.40 210.68 9.82Q213.85 4.24 219.86 1.18Q225.87-1.88 234.22-1.88Q242.86-1.88 248.88 1.18Q254.89 4.24 258.06 9.82Q261.22 15.40 261.22 22.96Q261.22 30.52 258.06 36.10Q254.89 41.68 248.88 44.74Q242.86 47.80 234.22 47.80M234.22 34.84Q239.12 34.84 241.86 33.87Q244.59 32.90 245.71 30.30Q246.82 27.71 246.82 22.96Q246.82 18.14 245.71 15.58Q244.59 13.02 241.86 12.05Q239.12 11.08 234.22 11.08Q229.33 11.08 226.66 12.05Q224.00 13.02 222.96 15.58Q221.91 18.14 221.91 22.96Q221.91 27.71 222.96 30.30Q224.00 32.90 226.66 33.87Q229.33 34.84 234.22 34.84ZM278.36 47.08L264.82 47.08L264.82-1.16L279.22-1.16L292.62 16.91L299.67 28.00L300.61 28.00L299.96 17.49L299.96-1.16L313.50-1.16L313.50 47.08L299.10 47.08L284.84 28.50L278.72 19.00L277.78 19.00L278.36 28.22L278.36 47.08Z"></path></svg>