<svg version="1.1" xmlns="http://www.w3.org/2000/svg" xmlns:xlink="http://www.w3.org/1999/xlink" role="img" width="627" height="47" viewbox="0 0 627 47"><title>DNI FANTASTYKI</title><path d="M26.36 47.08L5.34 47.08L5.34 34.91L26.36 34.91Q30.68 34.91 33.20 34.19Q35.72 33.47 36.80 30.92Q37.88 28.36 37.88 22.96Q37.88 17.49 36.80 14.97Q35.72 12.45 33.20 11.73Q30.68 11.01 26.36 11.01L5.34 11.01L5.34-1.16L26.36-1.16Q34.35-1.16 40.18 1.68Q46.02 4.53 49.18 9.93Q52.35 15.33 52.35 22.96Q52.35 30.59 49.18 35.99Q46.02 41.39 40.18 44.24Q34.35 47.08 26.36 47.08M15.49 47.08L1.95 47.08L1.95-1.16L15.49-1.16L15.49 47.08ZM69.49 47.08L55.95 47.08L55.95-1.16L70.35-1.16L83.74 16.91L90.80 28.00L91.74 28.00L91.09 17.49L91.09-1.16L104.62-1.16L104.62 47.08L90.22 47.08L75.97 28.50L69.85 19.00L68.91 19.00L69.49 28.22L69.49 47.08ZM122.48 47.08L108.94 47.08L108.94-1.16L122.48-1.16L122.48 47.08ZM150.42 47.08L136.88 47.08L136.88-1.16L150.42-1.16L150.42 47.08M178.93 30.30L140.55 30.30L140.55 18.21L178.93 18.21L178.93 30.30M180.01 11.01L140.55 11.01L140.55-1.16L180.01-1.16L180.01 11.01ZM195.85 47.08L180.66 47.08L201.46-1.16L220.83-1.16L241.71 47.08L226.16 47.08L214.71 19.22L211.54 11.08L210.61 11.08L207.51 19.22L195.85 47.08M228.54 38.15L192.97 38.15L192.97 25.98L228.54 25.98L228.54 38.15ZM256.69 47.08L243.15 47.08L243.15-1.16L257.55-1.16L270.94 16.91L278.00 28.00L278.94 28.00L278.29 17.49L278.29-1.16L291.82-1.16L291.82 47.08L277.42 47.08L263.17 28.50L257.05 19.00L256.11 19.00L256.69 28.22L256.69 47.08ZM325.66 47.08L312.13 47.08L312.13-1.16L325.66-1.16L325.66 47.08M342.66 11.01L295.06 11.01L295.06-1.16L342.66-1.16L342.66 11.01ZM358.21 47.08L343.02 47.08L363.82-1.16L383.19-1.16L404.07 47.08L388.52 47.08L377.07 19.22L373.90 11.08L372.97 11.08L369.87 19.22L358.21 47.08M390.90 38.15L355.33 38.15L355.33 25.98L390.90 25.98L390.90 38.15ZM428.91 47.80Q421.57 47.80 416.24 45.96Q410.91 44.13 408.03 40.28Q405.15 36.42 405.15 30.30L405.15 29.87L418.69 29.87L418.69 31.38Q418.69 32.97 419.37 33.87Q420.06 34.77 422.22 35.13Q424.38 35.49 428.91 35.49Q433.02 35.49 434.96 35.24Q436.90 34.98 437.44 34.37Q437.98 33.76 437.98 32.68Q437.98 31.38 437.01 30.74Q436.04 30.09 433.09 29.73L417.97 27.71Q413.50 27.06 410.48 25.30Q407.46 23.54 405.94 20.66Q404.43 17.78 404.43 13.89Q404.43 11.01 405.66 8.20Q406.88 5.39 409.62 3.12Q412.35 0.86 416.82-0.51Q421.28-1.88 427.83-1.88Q435.54-1.88 440.54 0.24Q445.54 2.37 448.03 6.29Q450.51 10.22 450.51 15.62L450.51 16.05L436.98 16.05L436.98 14.97Q436.98 13.24 436.22 12.23Q435.46 11.22 433.20 10.79Q430.93 10.36 426.39 10.36Q422.94 10.36 421.14 10.68Q419.34 11.01 418.65 11.66Q417.97 12.30 417.97 13.38Q417.97 14.10 418.29 14.64Q418.62 15.18 419.37 15.47Q420.13 15.76 421.42 15.98L436.54 18.21Q442.45 19.07 445.69 21.20Q448.93 23.32 450.22 26.20Q451.52 29.08 451.52 32.18Q451.52 36.28 449.25 39.84Q446.98 43.41 442.02 45.60Q437.05 47.80 428.91 47.80ZM484.28 47.08L470.74 47.08L470.74-1.16L484.28-1.16L484.28 47.08M501.27 11.01L453.68 11.01L453.68-1.16L501.27-1.16L501.27 11.01ZM536.41 31.89L523.02 31.89L501.27-1.16L518.05-1.16L525.32 10.29L529.42 17.06L530.36 17.06L534.46 10.29L541.74-1.16L558.58-1.16L536.41 31.89M536.48 47.08L522.94 47.08L522.94 24.18L536.48 24.18L536.48 47.08ZM610.50 47.08L594.30 47.08L583.06 29.94L569.24 29.94L569.24 16.77L582.92 16.77L594.66-1.16L610.86-1.16L594.15 22.53L610.50 47.08M573.20 47.08L559.66 47.08L559.66-1.16L573.20-1.16L573.20 47.08ZM625.83 47.08L612.30 47.08L612.30-1.16L625.83-1.16L625.83 47.08Z"></path></svg>