<svg version="1.1" xmlns="http://www.w3.org/2000/svg" xmlns:xlink="http://www.w3.org/1999/xlink" role="img" width="552" height="47" viewbox="0 0 552 47"><title>WROCŁAWSKI</title><path d="M29.82 47.08L9.73 47.08L-0.35-1.16L14.77-1.16L18.80 23.39L20.10 34.26L21.03 34.26L22.98 23.39L29.46-1.16L49.83-1.16L55.74 23.39L57.46 34.26L58.40 34.26L59.84 23.39L64.38-1.16L79.21-1.16L68.19 47.08L48.10 47.08L43.06 26.42L39.90 11.30L38.96 11.30L35.58 26.42L29.82 47.08ZM95.55 47.08L82.02 47.08L82.02-1.16L110.17-1.16Q116.58-1.16 120.90 0.57Q125.22 2.30 127.41 5.57Q129.61 8.85 129.61 13.60Q129.61 17.42 128.28 20.19Q126.94 22.96 124.06 24.65Q121.18 26.34 116.58 26.92L116.58 27.64Q120.32 28.58 121.94 30.41Q123.56 32.25 124.93 34.98L130.90 47.08L115.28 47.08L109.52 35.27Q108.66 33.47 107.72 32.46Q106.78 31.46 105.27 31.06Q103.76 30.66 101.10 30.66L95.55 30.66L95.55 47.08M95.55 11.01L95.55 20.58L110.02 20.58Q112.98 20.58 114.20 19.72Q115.42 18.86 115.42 15.76Q115.42 12.88 114.20 11.94Q112.98 11.01 110.02 11.01L95.55 11.01ZM159.06 47.80Q150.70 47.80 144.69 44.74Q138.68 41.68 135.51 36.10Q132.34 30.52 132.34 22.96Q132.34 15.40 135.51 9.82Q138.68 4.24 144.69 1.18Q150.70-1.88 159.06-1.88Q167.70-1.88 173.71 1.18Q179.72 4.24 182.89 9.82Q186.06 15.40 186.06 22.96Q186.06 30.52 182.89 36.10Q179.72 41.68 173.71 44.74Q167.70 47.80 159.06 47.80M159.06 34.84Q163.95 34.84 166.69 33.87Q169.42 32.90 170.54 30.30Q171.66 27.71 171.66 22.96Q171.66 18.14 170.54 15.58Q169.42 13.02 166.69 12.05Q163.95 11.08 159.06 11.08Q154.16 11.08 151.50 12.05Q148.83 13.02 147.79 15.58Q146.74 18.14 146.74 22.96Q146.74 27.71 147.79 30.30Q148.83 32.90 151.50 33.87Q154.16 34.84 159.06 34.84ZM215.58 47.80Q207.22 47.80 201.25 44.74Q195.27 41.68 192.10 36.10Q188.94 30.52 188.94 22.96Q188.94 15.40 192.10 9.82Q195.27 4.24 201.25 1.18Q207.22-1.88 215.58-1.88Q223.71-1.88 229.51 0.57Q235.30 3.02 238.40 7.62Q241.50 12.23 241.50 18.71L241.50 19.94L226.38 19.94L226.38 18.71Q226.38 14.61 224.07 12.84Q221.77 11.08 215.79 11.08Q210.90 11.08 208.20 12.05Q205.50 13.02 204.42 15.58Q203.34 18.14 203.34 22.96Q203.34 27.71 204.42 30.30Q205.50 32.90 208.20 33.87Q210.90 34.84 215.79 34.84Q221.77 34.84 224.07 33.08Q226.38 31.31 226.38 27.21L226.38 25.98L241.50 25.98L241.50 27.21Q241.50 33.62 238.40 38.26Q235.30 42.90 229.51 45.35Q223.71 47.80 215.58 47.80ZM262.52 47.08L248.98 47.08L248.98-1.16L262.52-1.16L262.52 47.08M290.38 47.08L252.73 47.08L252.73 34.91L290.38 34.91L290.38 47.08M277.21 22.89L243.66 34.55L243.66 22.02L277.21 10.36L277.21 22.89ZM306.30 47.08L291.10 47.08L311.91-1.16L331.28-1.16L352.16 47.08L336.61 47.08L325.16 19.22L321.99 11.08L321.06 11.08L317.96 19.22L306.30 47.08M338.98 38.15L303.42 38.15L303.42 25.98L338.98 25.98L338.98 38.15ZM382.26 47.08L362.17 47.08L352.09-1.16L367.21-1.16L371.24 23.39L372.54 34.26L373.47 34.26L375.42 23.39L381.90-1.16L402.27-1.16L408.18 23.39L409.90 34.26L410.84 34.26L412.28 23.39L416.82-1.16L431.65-1.16L420.63 47.08L400.54 47.08L395.50 26.42L392.34 11.30L391.40 11.30L388.02 26.42L382.26 47.08ZM457.86 47.80Q450.51 47.80 445.18 45.96Q439.86 44.13 436.98 40.28Q434.10 36.42 434.10 30.30L434.10 29.87L447.63 29.87L447.63 31.38Q447.63 32.97 448.32 33.87Q449.00 34.77 451.16 35.13Q453.32 35.49 457.86 35.49Q461.96 35.49 463.90 35.24Q465.85 34.98 466.39 34.37Q466.93 33.76 466.93 32.68Q466.93 31.38 465.96 30.74Q464.98 30.09 462.03 29.73L446.91 27.71Q442.45 27.06 439.42 25.30Q436.40 23.54 434.89 20.66Q433.38 17.78 433.38 13.89Q433.38 11.01 434.60 8.20Q435.82 5.39 438.56 3.12Q441.30 0.86 445.76-0.51Q450.22-1.88 456.78-1.88Q464.48-1.88 469.48 0.24Q474.49 2.37 476.97 6.29Q479.46 10.22 479.46 15.62L479.46 16.05L465.92 16.05L465.92 14.97Q465.92 13.24 465.16 12.23Q464.41 11.22 462.14 10.79Q459.87 10.36 455.34 10.36Q451.88 10.36 450.08 10.68Q448.28 11.01 447.60 11.66Q446.91 12.30 446.91 13.38Q446.91 14.10 447.24 14.64Q447.56 15.18 448.32 15.47Q449.07 15.76 450.37 15.98L465.49 18.21Q471.39 19.07 474.63 21.20Q477.87 23.32 479.17 26.20Q480.46 29.08 480.46 32.18Q480.46 36.28 478.20 39.84Q475.93 43.41 470.96 45.60Q465.99 47.80 457.86 47.80ZM534.54 47.08L518.34 47.08L507.10 29.94L493.28 29.94L493.28 16.77L506.96 16.77L518.70-1.16L534.90-1.16L518.19 22.53L534.54 47.08M497.24 47.08L483.70 47.08L483.70-1.16L497.24-1.16L497.24 47.08ZM549.87 47.08L536.34 47.08L536.34-1.16L549.87-1.16L549.87 47.08Z"></path></svg>