<svg version="1.1" xmlns="http://www.w3.org/2000/svg" xmlns:xlink="http://www.w3.org/1999/xlink" role="img" width="926" height="47" viewbox="0 0 926 47"><title>WEEKEND Z MAJONGIEM</title><path d="M29.82 47.08L9.73 47.08L-0.35-1.16L14.77-1.16L18.80 23.39L20.10 34.26L21.03 34.26L22.98 23.39L29.46-1.16L49.83-1.16L55.74 23.39L57.46 34.26L58.40 34.26L59.84 23.39L64.38-1.16L79.21-1.16L68.19 47.08L48.10 47.08L43.06 26.42L39.90 11.30L38.96 11.30L35.58 26.42L29.82 47.08ZM95.55 47.08L82.02 47.08L82.02-1.16L95.55-1.16L95.55 47.08M124.86 47.08L85.69 47.08L85.69 34.91L124.86 34.91L124.86 47.08M123.78 28.86L85.69 28.86L85.69 16.77L123.78 16.77L123.78 28.86M124.86 11.01L85.69 11.01L85.69-1.16L124.86-1.16L124.86 11.01ZM142.21 47.08L128.67 47.08L128.67-1.16L142.21-1.16L142.21 47.08M171.51 47.08L132.34 47.08L132.34 34.91L171.51 34.91L171.51 47.08M170.43 28.86L132.34 28.86L132.34 16.77L170.43 16.77L170.43 28.86M171.51 11.01L132.34 11.01L132.34-1.16L171.51-1.16L171.51 11.01ZM226.16 47.08L209.96 47.08L198.73 29.94L184.90 29.94L184.90 16.77L198.58 16.77L210.32-1.16L226.52-1.16L209.82 22.53L226.16 47.08M188.86 47.08L175.33 47.08L175.33-1.16L188.86-1.16L188.86 47.08ZM241.50 47.08L227.96 47.08L227.96-1.16L241.50-1.16L241.50 47.08M270.80 47.08L231.63 47.08L231.63 34.91L270.80 34.91L270.80 47.08M269.72 28.86L231.63 28.86L231.63 16.77L269.72 16.77L269.72 28.86M270.80 11.01L231.63 11.01L231.63-1.16L270.80-1.16L270.80 11.01ZM288.15 47.08L274.62 47.08L274.62-1.16L289.02-1.16L302.41 16.91L309.46 28.00L310.40 28.00L309.75 17.49L309.75-1.16L323.29-1.16L323.29 47.08L308.89 47.08L294.63 28.50L288.51 19.00L287.58 19.00L288.15 28.22L288.15 47.08ZM352.81 47.08L331.78 47.08L331.78 34.91L352.81 34.91Q357.13 34.91 359.65 34.19Q362.17 33.47 363.25 30.92Q364.33 28.36 364.33 22.96Q364.33 17.49 363.25 14.97Q362.17 12.45 359.65 11.73Q357.13 11.01 352.81 11.01L331.78 11.01L331.78-1.16L352.81-1.16Q360.80-1.16 366.63 1.68Q372.46 4.53 375.63 9.93Q378.80 15.33 378.80 22.96Q378.80 30.59 375.63 35.99Q372.46 41.39 366.63 44.24Q360.80 47.08 352.81 47.08M341.94 47.08L328.40 47.08L328.40-1.16L341.94-1.16L341.94 47.08ZM438.70 47.08L392.12 47.08L392.12 34.91L417.82 11.94L417.82 11.01L392.55 11.01L392.55-1.16L438.27-1.16L438.27 11.01L411.42 33.98L411.42 34.91L438.70 34.91L438.70 47.08ZM466.28 47.08L452.74 47.08L452.74-1.16L471.10-1.16L479.96 18.86L484.71 31.31L485.65 31.31L490.18 18.86L498.61-1.16L516.97-1.16L516.97 47.08L503.43 47.08L503.43 27.14L503.94 19.07L503.00 19.07L500.26 27.14L493.06 44.20L476.65 44.20L469.45 27.14L466.71 19.07L465.78 19.07L466.28 27.14L466.28 47.08ZM533.60 47.08L518.41 47.08L539.22-1.16L558.58-1.16L579.46 47.08L563.91 47.08L552.46 19.22L549.30 11.08L548.36 11.08L545.26 19.22L533.60 47.08M566.29 38.15L530.72 38.15L530.72 25.98L566.29 25.98L566.29 38.15ZM602 47.80Q593.79 47.80 588.82 45.35Q583.86 42.90 581.66 38.15Q579.46 33.40 579.46 26.42L579.46 24.54L593.86 24.54L593.86 26.27Q593.86 29.51 594.30 31.35Q594.73 33.18 596.42 33.94Q598.11 34.70 602 34.70Q605.89 34.70 607.62 34.01Q609.34 33.33 609.81 31.64Q610.28 29.94 610.28 26.99L610.28-1.16L624.68-1.16L624.68 27.14Q624.68 33.83 622.45 38.44Q620.22 43.05 615.25 45.42Q610.28 47.80 602 47.80ZM654.70 47.80Q646.35 47.80 640.34 44.74Q634.33 41.68 631.16 36.10Q627.99 30.52 627.99 22.96Q627.99 15.40 631.16 9.82Q634.33 4.24 640.34 1.18Q646.35-1.88 654.70-1.88Q663.34-1.88 669.36 1.18Q675.37 4.24 678.54 9.82Q681.70 15.40 681.70 22.96Q681.70 30.52 678.54 36.10Q675.37 41.68 669.36 44.74Q663.34 47.80 654.70 47.80M654.70 34.84Q659.60 34.84 662.34 33.87Q665.07 32.90 666.19 30.30Q667.30 27.71 667.30 22.96Q667.30 18.14 666.19 15.58Q665.07 13.02 662.34 12.05Q659.60 11.08 654.70 11.08Q649.81 11.08 647.14 12.05Q644.48 13.02 643.44 15.58Q642.39 18.14 642.39 22.96Q642.39 27.71 643.44 30.30Q644.48 32.90 647.14 33.87Q649.81 34.84 654.70 34.84ZM698.84 47.08L685.30 47.08L685.30-1.16L699.70-1.16L713.10 16.91L720.15 28.00L721.09 28.00L720.44 17.49L720.44-1.16L733.98-1.16L733.98 47.08L719.58 47.08L705.32 28.50L699.20 19.00L698.26 19.00L698.84 28.22L698.84 47.08ZM761.62 47.80Q754.06 47.80 748.66 44.74Q743.26 41.68 740.42 36.10Q737.58 30.52 737.58 22.96Q737.58 15.40 740.89 9.82Q744.20 4.24 750.46 1.18Q756.73-1.88 765.51-1.88Q773.72-1.88 779.55 0.42Q785.38 2.73 788.48 7.01Q791.58 11.30 791.58 17.27L791.58 17.78L776.46 17.78L776.46 17.27Q776.46 13.89 774.01 12.48Q771.56 11.08 765.15 11.08Q759.97 11.08 757.12 12.05Q754.28 13.02 753.13 15.58Q751.98 18.14 751.98 22.96Q751.98 27.71 753.06 30.30Q754.14 32.90 756.84 33.87Q759.54 34.84 764.43 34.84Q770.26 34.84 773.22 34.44Q776.17 34.05 777.14 32.72Q778.11 31.38 778.11 28.58L778.11 25.91L791.65 25.62L791.65 26.63L779.91 36.78L778.33 36.78Q777.68 39.59 775.92 42.11Q774.15 44.63 770.73 46.22Q767.31 47.80 761.62 47.80M791.65 47.08L779.05 47.08L779.05 33.33L778.11 31.82L778.11 21.38L791.65 21.38L791.65 47.08M791.65 30.66L763.14 30.66L763.14 20.73L791.65 20.73L791.65 30.66ZM809.22 47.08L795.68 47.08L795.68-1.16L809.22-1.16L809.22 47.08ZM827.07 47.08L813.54 47.08L813.54-1.16L827.07-1.16L827.07 47.08M856.38 47.08L817.21 47.08L817.21 34.91L856.38 34.91L856.38 47.08M855.30 28.86L817.21 28.86L817.21 16.77L855.30 16.77L855.30 28.86M856.38 11.01L817.21 11.01L817.21-1.16L856.38-1.16L856.38 11.01ZM873.73 47.08L860.19 47.08L860.19-1.16L878.55-1.16L887.41 18.86L892.16 31.31L893.10 31.31L897.63 18.86L906.06-1.16L924.42-1.16L924.42 47.08L910.88 47.08L910.88 27.14L911.38 19.07L910.45 19.07L907.71 27.14L900.51 44.20L884.10 44.20L876.90 27.14L874.16 19.07L873.22 19.07L873.73 27.14L873.73 47.08Z"></path></svg>